<svg id="Group_121" data-name="Group 121" xmlns="http://www.w3.org/2000/svg" xmlns:xlink="http://www.w3.org/1999/xlink" width="16.597" height="35.621" viewBox="0 0 16.597 35.621">
  <defs>
    <clipPath id="clip-path">
      <path id="Path_217" data-name="Path 217" d="M0,15.142H16.6V-20.479H0Z" transform="translate(0 20.479)" fill="none"/>
    </clipPath>
  </defs>
  <g id="Group_122" data-name="Group 122" transform="translate(0 0)" clip-path="url(#clip-path)">
    <g id="Group_121-2" data-name="Group 121" transform="translate(0 0.001)">
      <path id="Path_216" data-name="Path 216" d="M4.307,0H10.68V6.131c-1.308,0-2.56,0-3.811,0A1.537,1.537,0,0,0,5.13,7.864c-.009,1.117,0,2.233,0,3.35,0,.1.019.205.033.343h5.61c-.217,2.106-.43,4.173-.647,6.281H5.118V35.621h-7.4V17.813H-5.825V11.6a3.458,3.458,0,0,1,.437-.059c.8-.005,1.605,0,2.407,0h.706c0-1.285-.024-2.508.01-3.729A12.779,12.779,0,0,1-2.047,5.5,6.345,6.345,0,0,1,2.832.278C3.316.153,3.815.092,4.307,0" transform="translate(5.825)" fill="#224286"/>
    </g>
  </g>
</svg>
