<svg xmlns="http://www.w3.org/2000/svg" xmlns:xlink="http://www.w3.org/1999/xlink" width="32.021" height="32.233" viewBox="0 0 32.021 32.233">
  <defs>
    <clipPath id="clip-path">
      <path id="Path_233" data-name="Path 233" d="M0,13.7H32.021V-18.531H0Z" transform="translate(0 18.531)" fill="none"/>
    </clipPath>
  </defs>
  <g id="Group_125" data-name="Group 125" transform="translate(0)">
    <g id="Group_141" data-name="Group 141" transform="translate(0 0)" clip-path="url(#clip-path)">
      <g id="Group_135" data-name="Group 135" transform="translate(0.435 0.435)">
        <path id="Path_227" data-name="Path 227" d="M0,6.662C0,3.618-.011.574.015-2.47a3.268,3.268,0,0,1,.31-1.176,8.149,8.149,0,0,1,6.7-5.283A11.365,11.365,0,0,1,8.7-9.005q7.039-.008,14.079,0a8.3,8.3,0,0,1,8.088,6.154,8.422,8.422,0,0,1,.285,2.174q0,7.311,0,14.623a8.147,8.147,0,0,1-1.508,4.863,7.984,7.984,0,0,1-5.723,3.456,25.608,25.608,0,0,1-2.994.083q-6.4.013-12.793,0A8.276,8.276,0,0,1,.066,16.2,1.71,1.71,0,0,1,0,15.736Q0,11.2,0,6.662ZM15.459,20.507c2.336,0,4.674.007,7.01-.005a8.839,8.839,0,0,0,1.607-.122A6.48,6.48,0,0,0,29.3,13.955c-.03-4.862-.009-9.725,0-14.587a6.734,6.734,0,0,0-.5-2.562,6.476,6.476,0,0,0-6.06-3.971q-7.011,0-14.021,0A11.959,11.959,0,0,0,7.263-7.1,6.421,6.421,0,0,0,1.633-.7q0,7.381,0,14.762a6.168,6.168,0,0,0,1.146,3.656,6.334,6.334,0,0,0,5.4,2.785c2.428.016,4.856,0,7.285,0" transform="translate(0.002 9.009)" fill="#224286"/>
      </g>
      <g id="Group_136" data-name="Group 136" transform="translate(0.435 0.435)">
        <path id="Path_228" data-name="Path 228" d="M0,6.662C0,3.618-.011.574.015-2.47a3.268,3.268,0,0,1,.31-1.176,8.149,8.149,0,0,1,6.7-5.283A11.365,11.365,0,0,1,8.7-9.005q7.039-.008,14.079,0a8.3,8.3,0,0,1,8.088,6.154,8.422,8.422,0,0,1,.285,2.174q0,7.311,0,14.623a8.147,8.147,0,0,1-1.508,4.863,7.984,7.984,0,0,1-5.723,3.456,25.608,25.608,0,0,1-2.994.083q-6.4.013-12.793,0A8.276,8.276,0,0,1,.066,16.2,1.71,1.71,0,0,1,0,15.736Q0,11.2,0,6.662ZM15.459,20.507c2.336,0,4.674.007,7.01-.005a8.839,8.839,0,0,0,1.607-.122A6.48,6.48,0,0,0,29.3,13.955c-.03-4.862-.009-9.725,0-14.587a6.734,6.734,0,0,0-.5-2.562,6.476,6.476,0,0,0-6.06-3.971q-7.011,0-14.021,0A11.959,11.959,0,0,0,7.263-7.1,6.421,6.421,0,0,0,1.633-.7q0,7.381,0,14.762a6.168,6.168,0,0,0,1.146,3.656,6.334,6.334,0,0,0,5.4,2.785C10.6,20.519,13.031,20.507,15.459,20.507Z" transform="translate(0.002 9.009)" fill="none" stroke="#224286" stroke-width="0.5"/>
      </g>
      <g id="Group_137" data-name="Group 137" transform="translate(8.515 8.738)">
        <path id="Path_229" data-name="Path 229" d="M6.275,3.139a7.375,7.375,0,0,1-7.41,7.373A7.4,7.4,0,0,1-8.487,3.134,7.385,7.385,0,0,1-.964-4.244,7.372,7.372,0,0,1,6.275,3.139M-1.1,8.662A5.528,5.528,0,0,0,4.43,3.028,5.528,5.528,0,0,0-1.095-2.4a5.527,5.527,0,0,0-5.54,5.41A5.534,5.534,0,0,0-1.1,8.662" transform="translate(8.487 4.246)" fill="#224286"/>
      </g>
      <g id="Group_138" data-name="Group 138" transform="translate(8.515 8.738)">
        <path id="Path_230" data-name="Path 230" d="M6.275,3.139a7.375,7.375,0,0,1-7.41,7.373A7.4,7.4,0,0,1-8.487,3.134,7.385,7.385,0,0,1-.964-4.244,7.372,7.372,0,0,1,6.275,3.139ZM-1.1,8.662A5.528,5.528,0,0,0,4.43,3.028,5.528,5.528,0,0,0-1.095-2.4a5.527,5.527,0,0,0-5.54,5.41A5.534,5.534,0,0,0-1.1,8.662Z" transform="translate(8.487 4.246)" fill="none" stroke="#224286" stroke-width="0.5"/>
      </g>
      <g id="Group_139" data-name="Group 139" transform="translate(22.359 5.971)">
        <path id="Path_231" data-name="Path 231" d="M0,.785a1.843,1.843,0,1,1,3.686,0A1.843,1.843,0,1,1,0,.785" transform="translate(0 1.062)" fill="#224286"/>
      </g>
      <g id="Group_140" data-name="Group 140" transform="translate(22.359 5.971)">
        <path id="Path_232" data-name="Path 232" d="M0,.785a1.843,1.843,0,1,1,3.686,0A1.843,1.843,0,1,1,0,.785Z" transform="translate(0 1.062)" fill="none" stroke="#224286" stroke-width="0.5"/>
      </g>
    </g>
  </g>
</svg>
