<svg xmlns="http://www.w3.org/2000/svg" xmlns:xlink="http://www.w3.org/1999/xlink" width="35.376" height="35.334" viewBox="0 0 35.376 35.334">
  <defs>
    <clipPath id="clip-path">
      <path id="Path_223" data-name="Path 223" d="M0,15.02H35.376V-20.314H0Z" transform="translate(0 20.314)" fill="none"/>
    </clipPath>
  </defs>
  <g id="Group_124" data-name="Group 124" transform="translate(0)">
    <g id="Group_131" data-name="Group 131" transform="translate(0 0)" clip-path="url(#clip-path)">
      <g id="Group_130" data-name="Group 130" transform="translate(11.713 10.316)">
        <path id="Path_222" data-name="Path 222" d="M0,.185H.264c2.134,0,4.27,0,6.406-.005.263,0,.351.061.37.339.063.988.162,1.972.249,2.957a.94.94,0,0,0,.056.136,2.166,2.166,0,0,0,.21-.217,8.5,8.5,0,0,1,6.8-3.625,8.931,8.931,0,0,1,4.524.819,7.973,7.973,0,0,1,4.145,5.1,16.223,16.223,0,0,1,.637,4.933c-.017,4.6-.007,9.208-.007,13.813v.327H15.842v-.353c0-4.366.007-8.73-.005-13.1a8.094,8.094,0,0,0-.651-3.31,3.582,3.582,0,0,0-6.218-.487,6.01,6.01,0,0,0-1.075,3.4c.007,2.8,0,5.6,0,8.407q0,2.578,0,5.156c0,.092-.01.183-.017.29H.113C.077,16.582.038,8.4,0,.185" transform="translate(0 0.25)" fill="#224286"/>
      </g>
    </g>
    <path id="Path_224" data-name="Path 224" d="M.009,10.82H7.782V-14.634H.009Z" transform="translate(0.007 24.514)" fill="#224286"/>
    <g id="Group_133" data-name="Group 133" transform="translate(0 0)" clip-path="url(#clip-path)">
      <g id="Group_132" data-name="Group 132" transform="translate(0 0)">
        <path id="Path_225" data-name="Path 225" d="M1.65,3.319A3.647,3.647,0,0,1-2.229-.327,3.873,3.873,0,0,1,1.7-4.487,3.64,3.64,0,0,1,5.579-.749,3.669,3.669,0,0,1,1.65,3.319" transform="translate(2.231 4.489)" fill="#224286"/>
      </g>
    </g>
  </g>
</svg>
