<svg id="Group_122" data-name="Group 122" xmlns="http://www.w3.org/2000/svg" xmlns:xlink="http://www.w3.org/1999/xlink" width="33.381" height="38.404" viewBox="0 0 33.381 38.404">
  <defs>
    <clipPath id="clip-path">
      <path id="Path_219" data-name="Path 219" d="M0,16.325H33.381v-38.4H0Z" transform="translate(0 22.079)" fill="none"/>
    </clipPath>
  </defs>
  <g id="Group_125" data-name="Group 125" clip-path="url(#clip-path)">
    <g id="Group_124" data-name="Group 124" transform="translate(-0.001)">
      <path id="Path_218" data-name="Path 218" d="M5.187,16.325H4.418L4.3,16.31c-.405-.04-.811-.063-1.212-.123A11.12,11.12,0,0,1,.174,15.33,12.017,12.017,0,0,1-6.177,8.783,11.008,11.008,0,0,1-6.9,6.143,17.005,17.005,0,0,1-7.014,3.9a9.6,9.6,0,0,1,.4-2.811A11.945,11.945,0,0,1-.881-6.2,11.736,11.736,0,0,1,3.946-7.7a11.039,11.039,0,0,1,2.96.125c.059.01.078.033.077.09,0,.275.007.55,0,.824Q6.953-3.6,6.917-.53a.494.494,0,0,1-.009.066c-.024-.005-.042-.007-.059-.012A5.925,5.925,0,0,0,5.312-.74a5.273,5.273,0,0,0-2.458.452A5.514,5.514,0,0,0,.071,2.518,3.963,3.963,0,0,0-.334,4.16c0,.4,0,.8.016,1.2a3.062,3.062,0,0,0,.078.546,5.329,5.329,0,0,0,1.3,2.447,5.41,5.41,0,0,0,2.555,1.6,5.3,5.3,0,0,0,1.689.165A5.343,5.343,0,0,0,8.679,8.771a5.885,5.885,0,0,0,1.492-2.089,2.252,2.252,0,0,0,.209-.859c.031-.925.083-1.851.089-2.774q.026-4.772.026-9.541.013-7.707.024-15.413v-.174h6.258c.012.144.023.3.037.451a10.938,10.938,0,0,0,.9,3.522,8.624,8.624,0,0,0,3.8,4.114,12.455,12.455,0,0,0,4.075,1.331c.259.04.518.075.778.111v6.436c-.33-.017-.661-.03-.991-.056a17.3,17.3,0,0,1-2.444-.369,15.926,15.926,0,0,1-3.418-1.179A20.324,20.324,0,0,1,17.2-9.049c-.045-.031-.092-.059-.153-.1V-9q-.013,6.7-.023,13.406a11.213,11.213,0,0,1-.407,2.954,11.867,11.867,0,0,1-4.635,6.721A11.6,11.6,0,0,1,5.39,16.306c-.068,0-.136.012-.2.019" transform="translate(7.015 22.079)" fill="#224286"/>
    </g>
  </g>
</svg>
