<svg id="Group_123" data-name="Group 123" xmlns="http://www.w3.org/2000/svg" xmlns:xlink="http://www.w3.org/1999/xlink" width="40.714" height="33.55" viewBox="0 0 40.714 33.55">
  <defs>
    <clipPath id="clip-path">
      <path id="Path_221" data-name="Path 221" d="M0,14.262H40.714v-33.55H0Z" transform="translate(0 19.288)" fill="none"/>
    </clipPath>
  </defs>
  <g id="Group_128" data-name="Group 128" transform="translate(0 0)" clip-path="url(#clip-path)">
    <g id="Group_127" data-name="Group 127" transform="translate(-0.001 0)">
      <path id="Path_220" data-name="Path 220" d="M5.1,11.17A8.8,8.8,0,0,1-2.736,5.265H.615c.028-.066.056-.132.083-.2-3.928-1.35-6.124-4-6.4-8.217,1.226.343,2.355.659,3.486.974.042-.071.083-.144.125-.217A8.636,8.636,0,0,1-5.4-7.438a8.362,8.362,0,0,1,.931-6.084A24.174,24.174,0,0,0,12.7-4.725a25.3,25.3,0,0,1,.43-4.192,8.391,8.391,0,0,1,13.689-4.055,1.266,1.266,0,0,0,1.438.339c1.2-.454,2.4-.9,3.6-1.362.252-.1.491-.231.878-.419a10.045,10.045,0,0,1-3.272,4.564c.7-.15,1.4-.27,2.086-.454.708-.193,1.4-.447,2.259-.725a14.9,14.9,0,0,1-3.489,3.769,1.41,1.41,0,0,0-.612,1.292c.094,10.76-7.17,22.045-19.965,24.077A24.051,24.051,0,0,1-5.881,15.489,5.554,5.554,0,0,1-6.9,14.795a17.882,17.882,0,0,0,12-3.625" transform="translate(6.897 15.107)" fill="#224286"/>
    </g>
  </g>
</svg>
